<svg width="87" height="44" viewBox="0 0 87 44" fill="none" xmlns="http://www.w3.org/2000/svg">
<g clip-path="url(#clip0_332_39)">
<path d="M9.10881 5.16821C7.25907 5.16821 5.59585 5.81227 4.32124 6.94329L3.65285 5.6866H0V25.778H3.7772L5.33161 24.05L5.30052 20.924C6.40415 21.5995 7.6943 21.9765 9.09326 21.9765C13.8497 21.9765 17.2694 18.4735 17.2694 13.5724C17.2694 8.67125 13.8653 5.16821 9.10881 5.16821ZM8.37824 17.1539C6.37306 17.1539 4.89637 15.6145 4.89637 13.5566C4.89637 11.4831 6.37306 9.95936 8.37824 9.95936C10.3834 9.95936 11.8601 11.4988 11.8601 13.5566C11.8756 15.6302 10.3834 17.1539 8.37824 17.1539Z" fill="black"/>
<path d="M23.9067 33.6008V43.4816H18.544V34.2763C18.544 32.6269 17.9378 31.8415 16.8031 31.8415C15.3264 31.8415 14.5648 32.8625 14.5648 34.8575V43.4973H9.34197V34.292C9.34197 32.6897 8.7513 31.8572 7.61658 31.8572C6.15544 31.8572 5.36269 32.9097 5.36269 34.8732V43.513H0V27.7415H3.7772L4.53886 29.438C5.65803 28.1185 7.3057 27.286 9.09326 27.286C10.9896 27.286 12.5907 28.1499 13.5544 29.6108C14.6736 28.1814 16.399 27.286 18.342 27.286C21.6839 27.2703 23.9067 29.8936 23.9067 33.6008Z" fill="black"/>
<path d="M34.5386 13.4153C34.5386 13.8865 34.492 14.3578 34.4298 14.8448H22.8495C23.207 16.6513 24.3417 17.5781 26.036 17.5781C27.2951 17.5781 28.3366 17.0283 28.8495 16.1015H34.1967C33.093 19.6987 29.9531 21.9451 26.036 21.9451C21.1708 21.9451 17.5801 18.3478 17.5801 13.5409C17.5801 8.71837 21.1552 5.16821 26.036 5.16821C31.0568 5.16821 34.5386 8.79692 34.5386 13.4153ZM22.9428 11.8444H29.2381C28.7718 10.2735 27.6526 9.42526 26.0205 9.42526C24.4661 9.42526 23.378 10.2735 22.9428 11.8444Z" fill="black"/>
<path d="M35.1919 0H38.2385H40.5546V21.4266H35.1919V0V0Z" fill="black"/>
<path d="M41.7666 14.6719V5.68652H47.1293V14.4363C47.1293 16.1014 48.0153 17.0753 49.4454 17.0753C50.8754 17.0753 51.7459 16.0857 51.7459 14.4363V5.68652H57.1086V14.6719C57.1086 19.0703 54.0464 21.945 49.4454 21.945C44.8443 21.945 41.7666 19.0703 41.7666 14.6719Z" fill="black"/>
<path d="M58.6475 16.3999H63.8547V21.4424H58.6475V16.3999Z" fill="black"/>
<path d="M24.5908 35.6116C24.5908 30.7262 28.2437 27.2231 33.3266 27.2231C38.3939 27.2231 42.0623 30.7262 42.0623 35.6116C42.0623 40.4813 38.3939 44 33.3266 44C28.2437 44 24.5908 40.4656 24.5908 35.6116ZM33.3266 39.1303C35.2851 39.1303 36.6841 37.7008 36.6841 35.6116C36.6841 33.538 35.2851 32.0928 33.3266 32.0928C31.368 32.0928 29.9691 33.5223 29.9691 35.6116C29.9535 37.6851 31.368 39.1303 33.3266 39.1303Z" fill="black"/>
<path d="M49.1039 44C44.8603 44 42.28 41.738 42.2334 38.3292H47.394C47.394 39.4759 48.1868 40.01 49.1971 40.01C49.9899 40.01 50.7204 39.6016 50.7204 38.7847C50.7204 37.8736 49.5391 37.6223 48.0469 37.3709C45.6375 36.9782 42.4355 36.2399 42.4355 32.4227C42.4355 29.2653 45.0935 27.2231 49.0883 27.2231C53.052 27.2231 55.6324 29.3595 55.6945 32.5484H50.6738C50.6738 31.543 50.0054 31.0718 49.0261 31.0718C48.1712 31.0718 47.5805 31.4959 47.5805 32.2342C47.5805 33.1296 48.7774 33.3338 50.2541 33.6009C52.7101 34.0407 55.9899 34.5591 55.9899 38.5491C55.9899 41.8479 53.2386 44 49.1039 44Z" fill="black"/>
<path d="M73.1036 35.4546C73.1036 35.9258 73.057 36.3971 72.9948 36.8841H61.4301C61.7876 38.6906 62.9223 39.6174 64.6166 39.6174C65.8757 39.6174 66.9171 39.0676 67.4301 38.1408H72.7772C71.6736 41.738 68.5337 43.9844 64.6166 43.9844C59.7513 43.9844 56.1606 40.3871 56.1606 35.5802C56.1606 30.7577 59.7358 27.2075 64.6166 27.2075C69.6373 27.2232 73.1036 30.8362 73.1036 35.4546ZM61.5233 33.8994H67.8187C67.3524 32.3285 66.2332 31.4803 64.6011 31.4803C63.0467 31.4646 61.9586 32.3285 61.5233 33.8994Z" fill="black"/>
<path d="M80.1141 44C75.8706 44 73.2903 41.738 73.2437 38.3292H78.4043C78.4043 39.4759 79.197 40.01 80.2074 40.01C81.0001 40.01 81.7307 39.6016 81.7307 38.7847C81.7307 37.8736 80.5494 37.6223 79.0571 37.3709C76.6478 36.9782 73.4457 36.2399 73.4457 32.4227C73.4457 29.2653 76.1038 27.2231 80.0986 27.2231C84.0623 27.2231 86.6426 29.3595 86.7048 32.5484H81.6841C81.6841 31.543 81.0157 31.0718 80.0364 31.0718C79.1815 31.0718 78.5908 31.4959 78.5908 32.2342C78.5908 33.1296 79.7877 33.3338 81.2644 33.6009C83.7203 34.0407 87.0001 34.5591 87.0001 38.5491C87.0001 41.8479 84.2488 44 80.1141 44Z" fill="black"/>
</g>
<defs>
<clipPath id="clip0_332_39">
<rect width="87" height="44" fill="white"/>
</clipPath>
</defs>
</svg>
